# xmcd CD database file
#
# Track frame offsets:
#	187
#	8362
#	21112
#	33462
#	44537
#	52325
#	63212
#	72287
#	80837
#	92312
#	104037
#	112012
#	118812
#	130687
#	142962
#	154787
#	167175
#	181237
#	191087
#	201375
#	207762
#	218987
#	229562
#	242387
#	253512
#	261912
#	273687
#	286912
#	293412
#	299975
#
# Disc length: 4145 seconds
#
# Revision: 0
# Processed by: cddbd v1.4PL0 Copyright (c) Steve Scherf et al.
# Submitted via: CDex 1.50beta8
#
DISCID=c9102f1e
DTITLE=HANK WILLIAMS - THE IMMORTAL HANK WILLIAMS Disc6
DYEAR=1988
DGENRE=Country
TTITLE0=FOOL ABOUT YOU
TTITLE1=HOW CAN YOU REFUSE HIM NOW
TTITLE2=I AIN'T GOT NOTHIN' BUT TIME
TTITLE3=I CAN'T ESCAPE FROM YOU
TTITLE4=IF YOU'LL BE A BABY
TTITLE5=I'M FREE AT LAST
TTITLE6=I'M GOING HOME
TTITLE7=I'M GONNA SING
TTITLE8=IT JUST DON'T MATTER NOW
TTITLE9=JESUS DIED FOR ME
TTITLE10=JESUS IS CALLING
TTITLE11=LAST NIGHT I DREAMED OF HEAVEN
TTITLE12=LOW DOWN BLUES
TTITLE13=MESSAGE TO MY MOTHER
TTITLE14=MOTHER IS GONE
TTITLE15=THE OLD HOME
TTITLE16=ROCK MY CRADLE
TTITLE17=ROCKIN' CHAIR MONEY
TTITLE18=ROLY POLY
TTITLE19=SUNDOWN AND SORROW
TTITLE20=SWING WIDE YOUR GATE OF LOVE
TTITLE21=TENNESSEE BORDER
TTITLE22=WAIT FOR THE LIGHT TO SHINE
TTITLE23=WE LIVE IN TWO DIFFERENT WORLDS
TTITLE24=WEARIN' OUT YOUR WALKING SHOES
TTITLE25=WEARY BLUES FROM WAITIN'
TTITLE26=WE'RE GETTIN' CLOSER TO THE GRAVE EACH DAY
TTITLE27=WHEN THE BOOK OF LIFE IS READ
TTITLE28=WHEN YOU'RE TIRED OF BREAKING OTHER HEARTS
TTITLE29=YOU'D BETTER KEEP IT ON YOUR MIND
EXTD=YEAR: 1988
EXTT0=
EXTT1=
EXTT2=
EXTT3=
EXTT4=
EXTT5=
EXTT6=
EXTT7=
EXTT8=
EXTT9=
EXTT10=
EXTT11=
EXTT12=
EXTT13=
EXTT14=
EXTT15=
EXTT16=
EXTT17=
EXTT18=
EXTT19=
EXTT20=
EXTT21=
EXTT22=
EXTT23=
EXTT24=
EXTT25=
EXTT26=
EXTT27=
EXTT28=
EXTT29=
PLAYORDER=
